<?xml version="1.0" encoding="UTF-8" standalone="no"?>
<svg width="148.167mm" height="141.111mm"
 viewBox="0 0 420 400"
 xmlns="http://www.w3.org/2000/svg" xmlns:xlink="http://www.w3.org/1999/xlink"  version="1.2" baseProfile="tiny">
<title>Qt Svg Document</title>
<desc>Generated with Qt</desc>
<defs>
</defs>
<g fill="none" stroke="black" stroke-width="1" fill-rule="evenodd" stroke-linecap="square" stroke-linejoin="bevel" >

<g fill="#ffffff" fill-opacity="0" stroke="none" transform="matrix(1,0,0,1,0,0)"
font-family=".SF NS Text" font-size="13" font-weight="400" font-style="normal" 
>
<path vector-effect="non-scaling-stroke" fill-rule="evenodd" d="M0,0 L400,0 L400,400 L0,400 L0,0"/>
</g>

<g fill="none" stroke="none" transform="matrix(1,0,0,1,0,0)"
font-family=".SF NS Text" font-size="13" font-weight="400" font-style="normal" 
>
<path vector-effect="non-scaling-stroke" fill-rule="evenodd" d="M0,0 L400,0 L400,400 L0,400 L0,0"/>
</g>

<g fill="none" stroke="#000000" stroke-opacity="1" stroke-width="1" stroke-linecap="square" stroke-linejoin="bevel" transform="matrix(1,0,0,1,0,0)"
font-family=".SF NS Text" font-size="13" font-weight="400" font-style="normal" 
>
</g>

<g fill="none" stroke="#000000" stroke-opacity="1" stroke-width="1" stroke-linecap="square" stroke-linejoin="bevel" transform="matrix(1,0,0,1,0,0)"
font-family=".SF NS Text" font-size="13" font-weight="400" font-style="normal" 
>
</g>

<g fill="none" stroke="#000000" stroke-opacity="1" stroke-width="1" stroke-linecap="square" stroke-linejoin="bevel" transform="matrix(1,0,0,1,33,24)"
font-family=".SF NS Text" font-size="13" font-weight="400" font-style="normal" 
>
</g>

<g fill="none" stroke="#0000ff" stroke-opacity="1" stroke-width="1" stroke-linecap="square" stroke-linejoin="bevel" transform="matrix(1,0,0,1,33,24)"
font-family="Helvetica" font-size="174" font-weight="700" font-style="normal" 
>
<text fill="#0000ff" fill-opacity="1" stroke="none" xml:space="preserve" x="12" y="140.969" font-family="Helvetica" font-size="174" font-weight="700" font-style="normal" 
 >NSE</text>
</g>

<g fill="none" stroke="#000000" stroke-opacity="1" stroke-width="1" stroke-linecap="square" stroke-linejoin="bevel" transform="matrix(1,0,0,1,33,24)"
font-family=".SF NS Text" font-size="13" font-weight="400" font-style="normal" 
>
</g>

<g fill="none" stroke="#000000" stroke-opacity="1" stroke-width="1" stroke-linecap="square" stroke-linejoin="bevel" transform="matrix(1,0,0,1,0,0)"
font-family=".SF NS Text" font-size="13" font-weight="400" font-style="normal" 
>
</g>

<g fill="#ffffff" fill-opacity="0" stroke="none" transform="matrix(1,0,0,1,0,0)"
font-family=".SF NS Text" font-size="13" font-weight="400" font-style="normal" 
>
<path vector-effect="non-scaling-stroke" fill-rule="evenodd" d="M0,0 L399,0 L399,399 L0,399 L0,0"/>
</g>

<g fill="none" stroke="#000000" stroke-opacity="1" stroke-width="1" stroke-linecap="square" stroke-linejoin="bevel" transform="matrix(1,0,0,1,0,0)"
font-family=".SF NS Text" font-size="13" font-weight="400" font-style="normal" 
>
</g>

<g fill="none" stroke="#000000" stroke-opacity="1" stroke-width="1" stroke-linecap="square" stroke-linejoin="bevel" transform="matrix(1,0,0,1,0,0)"
font-family=".SF NS Text" font-size="13" font-weight="400" font-style="normal" 
>
</g>

<g fill="none" stroke="#000000" stroke-opacity="1" stroke-width="1" stroke-linecap="square" stroke-linejoin="bevel" transform="matrix(1,0,0,1,0,0)"
font-family=".SF NS Text" font-size="13" font-weight="400" font-style="normal" 
>
</g>

<g fill="none" stroke="#000000" stroke-opacity="1" stroke-width="1" stroke-linecap="square" stroke-linejoin="bevel" transform="matrix(1,0,0,1,0,0)"
font-family=".SF NS Text" font-size="13" font-weight="400" font-style="normal" 
>
</g>

<g fill="none" stroke="#000000" stroke-opacity="1" stroke-width="10" stroke-linecap="square" stroke-linejoin="miter" stroke-miterlimit="2" transform="matrix(1,0,0,1,0,0)"
font-family=".SF NS Text" font-size="13" font-weight="400" font-style="normal" 
>
<polyline fill="none" vector-effect="non-scaling-stroke" points="0,30.9259 4.31818,36.1418 8.63636,40.5658 12.9545,44.7013 17.2727,48.6453 21.5909,52.4423 25.9091,56.1184 30.2274,59.6915 34.5454,63.1727 38.8637,66.5726 43.1818,69.8976 47.5001,73.1538 51.8181,76.3458 56.1364,79.4778 60.4545,82.5535 64.7728,85.5756 69.0908,88.5465 73.4092,91.469 77.7272,94.3453 82.0455,97.1766 86.3636,99.9651 90.6819,102.712 94.9999,105.42 99.3182,108.088 103.636,110.719 107.955,113.314 112.273,115.874 116.591,118.399 120.909,120.892 125.227,123.351 129.545,125.779 133.864,128.176 138.182,130.543 142.5,132.881 146.818,135.19 151.136,137.471 155.455,139.724 159.773,141.95 164.091,144.15 168.409,146.324 172.727,148.472 177.045,150.596 181.364,152.696 185.682,154.771 190,156.823 194.318,158.852 198.636,160.858 202.954,162.842 207.273,164.804 211.591,166.744 215.909,168.663 220.227,170.562 224.546,172.44 228.864,174.298 233.182,176.135 237.5,177.954 241.818,179.753 246.136,181.533 250.455,183.295 254.773,185.038 259.091,186.763 263.409,188.47 267.727,190.16 272.045,191.832 276.364,193.488 280.682,195.126 285,196.748 289.318,198.353 293.636,199.942 297.953,201.516 302.274,203.074 306.592,204.616 310.909,206.143 315.227,207.654 319.545,209.151 323.863,210.633 328.183,212.101 332.501,213.554 336.819,214.993 341.136,216.418 345.454,217.829 349.772,219.227 354.09,220.611 358.41,221.983 362.728,223.34 367.046,224.685 371.364,226.017 375.681,227.337 379.999,228.643 384.317,229.938 388.637,231.22 392.955,232.491 397.273,233.749 399,233.749 " />
</g>

<g fill="none" stroke="#000000" stroke-opacity="1" stroke-width="1" stroke-linecap="square" stroke-linejoin="bevel" transform="matrix(1,0,0,1,0,0)"
font-family=".SF NS Text" font-size="13" font-weight="400" font-style="normal" 
>
</g>

<g fill="none" stroke="#000000" stroke-opacity="1" stroke-width="1" stroke-linecap="square" stroke-linejoin="bevel" transform="matrix(1,0,0,1,0,0)"
font-family=".SF NS Text" font-size="13" font-weight="400" font-style="normal" 
>
</g>

<g fill="none" stroke="#000000" stroke-opacity="1" stroke-width="1" stroke-linecap="square" stroke-linejoin="bevel" transform="matrix(1,0,0,1,0,0)"
font-family=".SF NS Text" font-size="13" font-weight="400" font-style="normal" 
>
</g>

<g fill="none" stroke="#ff0000" stroke-opacity="1" stroke-width="10" stroke-linecap="square" stroke-linejoin="miter" stroke-miterlimit="2" transform="matrix(1,0,0,1,0,0)"
font-family=".SF NS Text" font-size="13" font-weight="400" font-style="normal" 
>
<polyline fill="none" vector-effect="non-scaling-stroke" points="0,30.9259 4.31818,39.9091 8.63636,47.4521 12.9545,54.4396 17.2727,61.0459 21.5909,67.3527 25.9091,73.4088 30.2274,79.2475 34.5454,84.8916 38.8637,90.3606 43.1818,95.668 47.5001,100.826 51.8181,105.845 56.1364,110.732 60.4545,115.496 64.7728,120.142 69.0908,124.677 73.4092,129.106 77.7272,133.432 82.0455,137.661 86.3636,141.797 90.6819,145.842 94.9999,149.8 99.3182,153.675 103.636,157.468 107.955,161.183 112.273,164.823 116.591,168.389 120.909,171.884 125.227,175.31 129.545,178.668 133.864,181.962 138.182,185.192 142.5,188.361 146.818,191.469 151.136,194.519 155.455,197.513 159.773,200.45 164.091,203.334 168.409,206.165 172.727,208.945 177.045,211.673 181.364,214.353 185.682,216.986 190,219.571 194.318,222.11 198.636,224.605 202.954,227.056 207.273,229.465 211.591,231.832 215.909,234.158 220.227,236.443 224.546,238.689 228.864,240.898 233.182,243.068 237.5,245.202 241.818,247.3 246.136,249.362 250.455,251.391 254.773,253.385 259.091,255.346 263.409,257.274 267.727,259.171 272.045,261.036 276.364,262.871 280.682,264.675 285,266.451 289.318,268.197 293.636,269.914 297.953,271.604 302.274,273.268 306.592,274.904 310.909,276.513 315.227,278.097 319.545,279.656 323.863,281.19 328.183,282.7 332.501,284.185 336.819,285.647 341.136,287.086 345.454,288.502 349.772,289.896 354.09,291.268 358.41,292.619 362.728,293.949 367.046,295.257 371.364,296.546 375.681,297.814 379.999,299.063 384.317,300.292 388.637,301.503 392.955,302.695 397.273,303.869 399,303.869 " />
</g>

<g fill="none" stroke="#000000" stroke-opacity="1" stroke-width="1" stroke-linecap="square" stroke-linejoin="bevel" transform="matrix(1,0,0,1,0,0)"
font-family=".SF NS Text" font-size="13" font-weight="400" font-style="normal" 
>
</g>

<g fill="none" stroke="#000000" stroke-opacity="1" stroke-width="1" stroke-linecap="square" stroke-linejoin="bevel" transform="matrix(1,0,0,1,0,0)"
font-family=".SF NS Text" font-size="13" font-weight="400" font-style="normal" 
>
</g>

<g fill="none" stroke="#000000" stroke-opacity="1" stroke-width="1" stroke-linecap="square" stroke-linejoin="bevel" transform="matrix(1,0,0,1,0,0)"
font-family=".SF NS Text" font-size="13" font-weight="400" font-style="normal" 
>
</g>

<g fill="none" stroke="#00ff00" stroke-opacity="1" stroke-width="10" stroke-linecap="square" stroke-linejoin="miter" stroke-miterlimit="2" transform="matrix(1,0,0,1,0,0)"
font-family=".SF NS Text" font-size="13" font-weight="400" font-style="normal" 
>
<polyline fill="none" vector-effect="non-scaling-stroke" points="0,30.9259 4.31818,45.2724 8.63636,57.144 12.9545,67.9991 17.2727,78.1337 21.5909,87.6918 25.9091,96.7624 30.2274,105.406 34.5454,113.667 38.8637,121.582 43.1818,129.177 47.5001,136.479 51.8181,143.505 56.1364,150.275 60.4545,156.802 64.7728,163.102 69.0908,169.186 73.4092,175.065 77.7272,180.749 82.0455,186.248 86.3636,191.57 90.6819,196.723 94.9999,201.714 99.3182,206.551 103.636,211.238 107.955,215.783 112.273,220.191 116.591,224.468 120.909,228.617 125.227,232.645 129.545,236.555 133.864,240.351 138.182,244.038 142.5,247.62 146.818,251.1 151.136,254.482 155.455,257.769 159.773,260.963 164.091,264.07 168.409,267.089 172.727,270.026 177.045,272.883 181.364,275.662 185.682,278.365 190,280.996 194.318,283.555 198.636,286.046 202.954,288.47 207.273,290.83 211.591,293.127 215.909,295.364 220.227,297.542 224.546,299.662 228.864,301.728 233.182,303.739 237.5,305.698 241.818,307.607 246.136,309.466 250.455,311.277 254.773,313.042 259.091,314.762 263.409,316.438 267.727,318.071 272.045,319.663 276.364,321.214 280.682,322.726 285,324.201 289.318,325.638 293.636,327.039 297.953,328.404 302.274,329.737 306.592,331.036 310.909,332.302 315.227,333.537 319.545,334.742 323.863,335.916 328.183,337.063 332.501,338.181 336.819,339.27 341.136,340.334 345.454,341.371 349.772,342.384 354.09,343.371 358.41,344.335 362.728,345.276 367.046,346.193 371.364,347.088 375.681,347.962 379.999,348.814 384.317,349.646 388.637,350.459 392.955,351.251 397.273,352.025 399,352.025 " />
</g>

<g fill="none" stroke="#000000" stroke-opacity="1" stroke-width="1" stroke-linecap="square" stroke-linejoin="bevel" transform="matrix(1,0,0,1,0,0)"
font-family=".SF NS Text" font-size="13" font-weight="400" font-style="normal" 
>
</g>

<g fill="none" stroke="#000000" stroke-opacity="1" stroke-width="1" stroke-linecap="square" stroke-linejoin="bevel" transform="matrix(1,0,0,1,0,0)"
font-family=".SF NS Text" font-size="13" font-weight="400" font-style="normal" 
>
</g>

<g fill="none" stroke="#000000" stroke-opacity="1" stroke-width="1" stroke-linecap="square" stroke-linejoin="bevel" transform="matrix(1,0,0,1,0,0)"
font-family=".SF NS Text" font-size="13" font-weight="400" font-style="normal" 
>
</g>

<g fill="none" stroke="#00ffff" stroke-opacity="1" stroke-width="10" stroke-linecap="square" stroke-linejoin="miter" stroke-miterlimit="2" transform="matrix(1,0,0,1,0,0)"
font-family=".SF NS Text" font-size="13" font-weight="400" font-style="normal" 
>
<polyline fill="none" vector-effect="non-scaling-stroke" points="0,30.9259 4.31818,52.4772 8.63636,69.9591 12.9545,85.6596 17.2727,100.069 21.5909,113.435 25.9091,125.915 30.2274,137.62 34.5454,148.633 38.8637,159.022 43.1818,168.842 47.5001,178.141 51.8181,186.956 56.1364,195.325 60.4545,203.277 64.7728,210.841 69.0908,218.04 73.4092,224.898 77.7272,231.436 82.0455,237.671 86.3636,243.62 90.6819,249.301 94.9999,254.727 99.3182,259.913 103.636,264.87 107.955,269.61 112.273,274.145 116.591,278.485 120.909,282.639 125.227,286.618 129.545,290.428 133.864,294.079 138.182,297.576 142.5,300.93 146.818,304.145 151.136,307.227 155.455,310.184 159.773,313.021 164.091,315.742 168.409,318.355 172.727,320.862 177.045,323.269 181.364,325.579 185.682,327.799 190,329.93 194.318,331.978 198.636,333.946 202.954,335.836 207.273,337.652 211.591,339.398 215.909,341.077 220.227,342.69 224.546,344.241 228.864,345.733 233.182,347.168 237.5,348.547 241.818,349.875 246.136,351.152 250.455,352.38 254.773,353.562 259.091,354.7 263.409,355.794 267.727,356.848 272.045,357.862 276.364,358.838 280.682,359.778 285,360.683 289.318,361.554 293.636,362.393 297.953,363.201 302.274,363.979 306.592,364.729 310.909,365.451 315.227,366.146 319.545,366.816 323.863,367.462 328.183,368.084 332.501,368.683 336.819,369.261 341.136,369.818 345.454,370.354 349.772,370.871 354.09,371.37 358.41,371.85 362.728,372.314 367.046,372.76 371.364,373.191 375.681,373.606 379.999,374.006 384.317,374.392 388.637,374.764 392.955,375.123 397.273,375.469 399,375.469 " />
</g>

<g fill="none" stroke="#000000" stroke-opacity="1" stroke-width="1" stroke-linecap="square" stroke-linejoin="bevel" transform="matrix(1,0,0,1,0,0)"
font-family=".SF NS Text" font-size="13" font-weight="400" font-style="normal" 
>
</g>

<g fill="none" stroke="#000000" stroke-opacity="1" stroke-width="1" stroke-linecap="square" stroke-linejoin="bevel" transform="matrix(1,0,0,1,0,0)"
font-family=".SF NS Text" font-size="13" font-weight="400" font-style="normal" 
>
</g>

<g fill="none" stroke="#000000" stroke-opacity="1" stroke-width="1" stroke-linecap="square" stroke-linejoin="bevel" transform="matrix(1,0,0,1,0,0)"
font-family=".SF NS Text" font-size="13" font-weight="400" font-style="normal" 
>
</g>

<g fill="none" stroke="#000000" stroke-opacity="1" stroke-width="1" stroke-linecap="square" stroke-linejoin="bevel" transform="matrix(1,0,0,1,0,0)"
font-family=".SF NS Text" font-size="13" font-weight="400" font-style="normal" 
>
</g>
</g>
</svg>
