<?xml version="1.0" encoding="UTF-8" standalone="no"?>
<svg width="259.292mm" height="215.9mm"
 viewBox="0 0 735 612"
 xmlns="http://www.w3.org/2000/svg" xmlns:xlink="http://www.w3.org/1999/xlink"  version="1.2" baseProfile="tiny">
<title>Qt Svg Document</title>
<desc>Generated with Qt</desc>
<defs>
</defs>
<g fill="none" stroke="black" stroke-width="1" fill-rule="evenodd" stroke-linecap="square" stroke-linejoin="bevel" >

<g fill="#ffffff" fill-opacity="0" stroke="none" transform="matrix(1,0,0,1,0,0)"
font-family=".SF NS Text" font-size="13" font-weight="400" font-style="normal" 
>
<path vector-effect="non-scaling-stroke" fill-rule="evenodd" d="M0,0 L619,0 L619,602 L0,602 L0,0"/>
</g>

<g fill="none" stroke="none" transform="matrix(1,0,0,1,0,0)"
font-family=".SF NS Text" font-size="13" font-weight="400" font-style="normal" 
>
<path vector-effect="non-scaling-stroke" fill-rule="evenodd" d="M0,0 L619,0 L619,602 L0,602 L0,0"/>
</g>

<g fill="none" stroke="#000000" stroke-opacity="1" stroke-width="1" stroke-linecap="square" stroke-linejoin="bevel" transform="matrix(1,0,0,1,0,0)"
font-family=".SF NS Text" font-size="13" font-weight="400" font-style="normal" 
>
</g>

<g fill="#ffffff" fill-opacity="0" stroke="none" transform="matrix(1,0,0,1,0,0)"
font-family=".SF NS Text" font-size="13" font-weight="400" font-style="normal" 
>
<path vector-effect="non-scaling-stroke" fill-rule="evenodd" d="M1,1 L600,1 L600,600 L1,600 L1,1"/>
</g>

<g fill="none" stroke="#000000" stroke-opacity="1" stroke-width="1" stroke-linecap="square" stroke-linejoin="bevel" transform="matrix(1,0,0,1,0,0)"
font-family=".SF NS Text" font-size="13" font-weight="400" font-style="normal" 
>
</g>

<g fill="none" stroke="#000000" stroke-opacity="1" stroke-width="1" stroke-linecap="square" stroke-linejoin="bevel" transform="matrix(1,0,0,1,0,0)"
font-family=".SF NS Text" font-size="13" font-weight="400" font-style="normal" 
>
</g>

<g fill="none" stroke="#000000" stroke-opacity="1" stroke-width="1" stroke-linecap="square" stroke-linejoin="bevel" transform="matrix(1,0,0,1,0,0)"
font-family=".SF NS Text" font-size="13" font-weight="400" font-style="normal" 
>
</g>

<g fill="none" stroke="#000000" stroke-opacity="1" stroke-width="1" stroke-linecap="square" stroke-linejoin="bevel" transform="matrix(1,0,0,1,0,0)"
font-family=".SF NS Text" font-size="13" font-weight="400" font-style="normal" 
>
</g>

<g fill="none" stroke="#c0c0c0" stroke-opacity="1" stroke-width="4" stroke-linecap="square" stroke-linejoin="miter" stroke-miterlimit="2" transform="matrix(1,0,0,1,0,0)"
font-family=".SF NS Text" font-size="13" font-weight="400" font-style="normal" 
>
<path vector-effect="none" fill-rule="evenodd" d="M1,1 L600,1 L600,600 L1,600 L1,1"/>
</g>

<g fill="none" stroke="#000000" stroke-opacity="1" stroke-width="1" stroke-linecap="square" stroke-linejoin="bevel" transform="matrix(1,0,0,1,0,0)"
font-family=".SF NS Text" font-size="13" font-weight="400" font-style="normal" 
>
</g>

<g fill="none" stroke="#000000" stroke-opacity="1" stroke-width="1" stroke-linecap="square" stroke-linejoin="bevel" transform="matrix(0,-1,1,0,0,595)"
font-family=".SF NS Text" font-size="15" font-weight="400" font-style="normal" 
>
</g>

<g fill="none" stroke="#000000" stroke-opacity="1" stroke-width="1" stroke-linecap="square" stroke-linejoin="bevel" transform="matrix(0,-1,1,0,0,595)"
font-family=".SF NS Text" font-size="15" font-weight="400" font-style="normal" 
>
</g>

<g fill="none" stroke="#000000" stroke-opacity="1" stroke-width="1" stroke-linecap="square" stroke-linejoin="bevel" transform="matrix(1,0,0,1,0,0)"
font-family=".SF NS Text" font-size="13" font-weight="400" font-style="normal" 
>
</g>

<g fill="none" stroke="#000000" stroke-opacity="1" stroke-width="4" stroke-linecap="square" stroke-linejoin="bevel" transform="matrix(1,0,0,1,0,0)"
font-family=".SF NS Text" font-size="15" font-weight="400" font-style="normal" 
>
</g>

<g fill="none" stroke="#000000" stroke-opacity="1" stroke-width="4" stroke-linecap="square" stroke-linejoin="bevel" transform="matrix(1,0,0,1,0,0)"
font-family=".SF NS Text" font-size="15" font-weight="400" font-style="normal" 
>
</g>

<g fill="none" stroke="#c0c0c0" stroke-opacity="1" stroke-width="4" stroke-linecap="square" stroke-linejoin="bevel" transform="matrix(1,0,0,1,0,0)"
font-family=".SF NS Text" font-size="15" font-weight="400" font-style="normal" 
>
<polyline fill="none" vector-effect="none" points="3,478 10,478 " />
<polyline fill="none" vector-effect="none" points="3,360 10,360 " />
<polyline fill="none" vector-effect="none" points="3,241 10,241 " />
<polyline fill="none" vector-effect="none" points="3,123 10,123 " />
<polyline fill="none" vector-effect="none" points="3,566 6,566 " />
<polyline fill="none" vector-effect="none" points="3,507 6,507 " />
<polyline fill="none" vector-effect="none" points="3,448 6,448 " />
<polyline fill="none" vector-effect="none" points="3,389 6,389 " />
<polyline fill="none" vector-effect="none" points="3,330 6,330 " />
<polyline fill="none" vector-effect="none" points="3,271 6,271 " />
<polyline fill="none" vector-effect="none" points="3,212 6,212 " />
<polyline fill="none" vector-effect="none" points="3,153 6,153 " />
<polyline fill="none" vector-effect="none" points="3,94 6,94 " />
<polyline fill="none" vector-effect="none" points="3,35 6,35 " />
<polyline fill="none" vector-effect="none" points="3,537 6,537 " />
<polyline fill="none" vector-effect="none" points="3,419 6,419 " />
<polyline fill="none" vector-effect="none" points="3,301 6,301 " />
<polyline fill="none" vector-effect="none" points="3,182 6,182 " />
<polyline fill="none" vector-effect="none" points="3,64 6,64 " />
</g>

<g fill="none" stroke="#000000" stroke-opacity="1" stroke-width="4" stroke-linecap="square" stroke-linejoin="bevel" transform="matrix(1,0,0,1,0,0)"
font-family=".SF NS Text" font-size="15" font-weight="400" font-style="normal" 
>
</g>

<g fill="none" stroke="#000000" stroke-opacity="1" stroke-width="1" stroke-linecap="square" stroke-linejoin="bevel" transform="matrix(1,0,0,1,0,0)"
font-family=".SF NS Text" font-size="13" font-weight="400" font-style="normal" 
>
</g>

<g fill="none" stroke="#000000" stroke-opacity="1" stroke-width="1" stroke-linecap="square" stroke-linejoin="bevel" transform="matrix(0,-1,1,0,603,595)"
font-family=".SF NS Text" font-size="15" font-weight="400" font-style="normal" 
>
</g>

<g fill="none" stroke="#000000" stroke-opacity="1" stroke-width="1" stroke-linecap="square" stroke-linejoin="bevel" transform="matrix(0,-1,1,0,603,595)"
font-family=".SF NS Text" font-size="15" font-weight="700" font-style="normal" 
>
<text fill="#000000" fill-opacity="1" stroke="none" xml:space="preserve" x="293.422" y="11.5469" font-family=".SF NS Text" font-size="15" font-weight="700" font-style="normal" 
 > </text>
</g>

<g fill="none" stroke="#000000" stroke-opacity="1" stroke-width="1" stroke-linecap="square" stroke-linejoin="bevel" transform="matrix(0,-1,1,0,603,595)"
font-family=".SF NS Text" font-size="15" font-weight="400" font-style="normal" 
>
</g>

<g fill="none" stroke="#000000" stroke-opacity="1" stroke-width="1" stroke-linecap="square" stroke-linejoin="bevel" transform="matrix(1,0,0,1,0,0)"
font-family=".SF NS Text" font-size="13" font-weight="400" font-style="normal" 
>
</g>

<g fill="none" stroke="#000000" stroke-opacity="1" stroke-width="4" stroke-linecap="square" stroke-linejoin="bevel" transform="matrix(1,0,0,1,0,0)"
font-family=".SF NS Text" font-size="15" font-weight="400" font-style="normal" 
>
</g>

<g fill="none" stroke="#000000" stroke-opacity="1" stroke-width="4" stroke-linecap="square" stroke-linejoin="bevel" transform="matrix(1,0,0,1,0,0)"
font-family=".SF NS Text" font-size="15" font-weight="400" font-style="normal" 
>
</g>

<g fill="none" stroke="#c0c0c0" stroke-opacity="1" stroke-width="4" stroke-linecap="square" stroke-linejoin="bevel" transform="matrix(1,0,0,1,0,0)"
font-family=".SF NS Text" font-size="15" font-weight="400" font-style="normal" 
>
<polyline fill="none" vector-effect="none" points="598,478 591,478 " />
<polyline fill="none" vector-effect="none" points="598,360 591,360 " />
<polyline fill="none" vector-effect="none" points="598,241 591,241 " />
<polyline fill="none" vector-effect="none" points="598,123 591,123 " />
<polyline fill="none" vector-effect="none" points="598,566 595,566 " />
<polyline fill="none" vector-effect="none" points="598,507 595,507 " />
<polyline fill="none" vector-effect="none" points="598,448 595,448 " />
<polyline fill="none" vector-effect="none" points="598,389 595,389 " />
<polyline fill="none" vector-effect="none" points="598,330 595,330 " />
<polyline fill="none" vector-effect="none" points="598,271 595,271 " />
<polyline fill="none" vector-effect="none" points="598,212 595,212 " />
<polyline fill="none" vector-effect="none" points="598,153 595,153 " />
<polyline fill="none" vector-effect="none" points="598,94 595,94 " />
<polyline fill="none" vector-effect="none" points="598,35 595,35 " />
<polyline fill="none" vector-effect="none" points="598,537 595,537 " />
<polyline fill="none" vector-effect="none" points="598,419 595,419 " />
<polyline fill="none" vector-effect="none" points="598,301 595,301 " />
<polyline fill="none" vector-effect="none" points="598,182 595,182 " />
<polyline fill="none" vector-effect="none" points="598,64 595,64 " />
</g>

<g fill="none" stroke="#000000" stroke-opacity="1" stroke-width="4" stroke-linecap="square" stroke-linejoin="bevel" transform="matrix(1,0,0,1,0,0)"
font-family=".SF NS Text" font-size="15" font-weight="400" font-style="normal" 
>
</g>

<g fill="none" stroke="#000000" stroke-opacity="1" stroke-width="1" stroke-linecap="square" stroke-linejoin="bevel" transform="matrix(1,0,0,1,0,0)"
font-family=".SF NS Text" font-size="13" font-weight="400" font-style="normal" 
>
</g>

<g fill="none" stroke="#000000" stroke-opacity="1" stroke-width="1" stroke-linecap="square" stroke-linejoin="bevel" transform="matrix(1,0,0,1,5,603)"
font-family=".SF NS Text" font-size="15" font-weight="400" font-style="normal" 
>
</g>

<g fill="none" stroke="#000000" stroke-opacity="1" stroke-width="1" stroke-linecap="square" stroke-linejoin="bevel" transform="matrix(1,0,0,1,5,603)"
font-family=".SF NS Text" font-size="15" font-weight="400" font-style="normal" 
>
</g>

<g fill="none" stroke="#000000" stroke-opacity="1" stroke-width="1" stroke-linecap="square" stroke-linejoin="bevel" transform="matrix(1,0,0,1,0,0)"
font-family=".SF NS Text" font-size="13" font-weight="400" font-style="normal" 
>
</g>

<g fill="none" stroke="#000000" stroke-opacity="1" stroke-width="4" stroke-linecap="square" stroke-linejoin="bevel" transform="matrix(1,0,0,1,0,0)"
font-family=".SF NS Text" font-size="15" font-weight="400" font-style="normal" 
>
</g>

<g fill="none" stroke="#000000" stroke-opacity="1" stroke-width="4" stroke-linecap="square" stroke-linejoin="bevel" transform="matrix(1,0,0,1,0,0)"
font-family=".SF NS Text" font-size="15" font-weight="400" font-style="normal" 
>
</g>

<g fill="none" stroke="#c0c0c0" stroke-opacity="1" stroke-width="4" stroke-linecap="square" stroke-linejoin="bevel" transform="matrix(1,0,0,1,0,0)"
font-family=".SF NS Text" font-size="15" font-weight="400" font-style="normal" 
>
<polyline fill="none" vector-effect="none" points="123,598 123,591 " />
<polyline fill="none" vector-effect="none" points="241,598 241,591 " />
<polyline fill="none" vector-effect="none" points="360,598 360,591 " />
<polyline fill="none" vector-effect="none" points="478,598 478,591 " />
<polyline fill="none" vector-effect="none" points="35,598 35,595 " />
<polyline fill="none" vector-effect="none" points="94,598 94,595 " />
<polyline fill="none" vector-effect="none" points="153,598 153,595 " />
<polyline fill="none" vector-effect="none" points="212,598 212,595 " />
<polyline fill="none" vector-effect="none" points="271,598 271,595 " />
<polyline fill="none" vector-effect="none" points="330,598 330,595 " />
<polyline fill="none" vector-effect="none" points="389,598 389,595 " />
<polyline fill="none" vector-effect="none" points="448,598 448,595 " />
<polyline fill="none" vector-effect="none" points="507,598 507,595 " />
<polyline fill="none" vector-effect="none" points="566,598 566,595 " />
<polyline fill="none" vector-effect="none" points="64,598 64,595 " />
<polyline fill="none" vector-effect="none" points="182,598 182,595 " />
<polyline fill="none" vector-effect="none" points="301,598 301,595 " />
<polyline fill="none" vector-effect="none" points="419,598 419,595 " />
<polyline fill="none" vector-effect="none" points="537,598 537,595 " />
</g>

<g fill="none" stroke="#000000" stroke-opacity="1" stroke-width="4" stroke-linecap="square" stroke-linejoin="bevel" transform="matrix(1,0,0,1,0,0)"
font-family=".SF NS Text" font-size="15" font-weight="400" font-style="normal" 
>
</g>

<g fill="none" stroke="#000000" stroke-opacity="1" stroke-width="1" stroke-linecap="square" stroke-linejoin="bevel" transform="matrix(1,0,0,1,0,0)"
font-family=".SF NS Text" font-size="13" font-weight="400" font-style="normal" 
>
</g>

<g fill="none" stroke="#000000" stroke-opacity="1" stroke-width="1" stroke-linecap="square" stroke-linejoin="bevel" transform="matrix(1,0,0,1,5,0)"
font-family=".SF NS Text" font-size="15" font-weight="400" font-style="normal" 
>
</g>

<g fill="none" stroke="#000000" stroke-opacity="1" stroke-width="1" stroke-linecap="square" stroke-linejoin="bevel" transform="matrix(1,0,0,1,5,0)"
font-family=".SF NS Text" font-size="15" font-weight="400" font-style="normal" 
>
</g>

<g fill="none" stroke="#000000" stroke-opacity="1" stroke-width="1" stroke-linecap="square" stroke-linejoin="bevel" transform="matrix(1,0,0,1,0,0)"
font-family=".SF NS Text" font-size="13" font-weight="400" font-style="normal" 
>
</g>

<g fill="none" stroke="#000000" stroke-opacity="1" stroke-width="4" stroke-linecap="square" stroke-linejoin="bevel" transform="matrix(1,0,0,1,0,0)"
font-family=".SF NS Text" font-size="15" font-weight="400" font-style="normal" 
>
</g>

<g fill="none" stroke="#000000" stroke-opacity="1" stroke-width="4" stroke-linecap="square" stroke-linejoin="bevel" transform="matrix(1,0,0,1,0,0)"
font-family=".SF NS Text" font-size="15" font-weight="400" font-style="normal" 
>
</g>

<g fill="none" stroke="#c0c0c0" stroke-opacity="1" stroke-width="4" stroke-linecap="square" stroke-linejoin="bevel" transform="matrix(1,0,0,1,0,0)"
font-family=".SF NS Text" font-size="15" font-weight="400" font-style="normal" 
>
<polyline fill="none" vector-effect="none" points="123,3 123,10 " />
<polyline fill="none" vector-effect="none" points="241,3 241,10 " />
<polyline fill="none" vector-effect="none" points="360,3 360,10 " />
<polyline fill="none" vector-effect="none" points="478,3 478,10 " />
<polyline fill="none" vector-effect="none" points="35,3 35,6 " />
<polyline fill="none" vector-effect="none" points="94,3 94,6 " />
<polyline fill="none" vector-effect="none" points="153,3 153,6 " />
<polyline fill="none" vector-effect="none" points="212,3 212,6 " />
<polyline fill="none" vector-effect="none" points="271,3 271,6 " />
<polyline fill="none" vector-effect="none" points="330,3 330,6 " />
<polyline fill="none" vector-effect="none" points="389,3 389,6 " />
<polyline fill="none" vector-effect="none" points="448,3 448,6 " />
<polyline fill="none" vector-effect="none" points="507,3 507,6 " />
<polyline fill="none" vector-effect="none" points="566,3 566,6 " />
<polyline fill="none" vector-effect="none" points="64,3 64,6 " />
<polyline fill="none" vector-effect="none" points="182,3 182,6 " />
<polyline fill="none" vector-effect="none" points="301,3 301,6 " />
<polyline fill="none" vector-effect="none" points="419,3 419,6 " />
<polyline fill="none" vector-effect="none" points="537,3 537,6 " />
</g>

<g fill="none" stroke="#000000" stroke-opacity="1" stroke-width="4" stroke-linecap="square" stroke-linejoin="bevel" transform="matrix(1,0,0,1,0,0)"
font-family=".SF NS Text" font-size="15" font-weight="400" font-style="normal" 
>
</g>

<g fill="none" stroke="#000000" stroke-opacity="1" stroke-width="1" stroke-linecap="square" stroke-linejoin="bevel" transform="matrix(1,0,0,1,0,0)"
font-family=".SF NS Text" font-size="13" font-weight="400" font-style="normal" 
>
</g>

<g fill="none" stroke="#000000" stroke-opacity="1" stroke-width="1" stroke-linecap="square" stroke-linejoin="bevel" transform="matrix(1,0,0,1,0,0)"
font-family=".SF NS Text" font-size="13" font-weight="400" font-style="normal" 
>
</g>

<g fill="none" stroke="#000000" stroke-opacity="1" stroke-width="1" stroke-linecap="square" stroke-linejoin="bevel" transform="matrix(1,0,0,1,-18,11)"
font-family=".SF NS Text" font-size="13" font-weight="400" font-style="normal" 
>
</g>

<g fill="none" stroke="#0000ff" stroke-opacity="1" stroke-width="1" stroke-linecap="square" stroke-linejoin="bevel" transform="matrix(1,0,0,1,-18,11)"
font-family="Helvetica" font-size="281" font-weight="700" font-style="normal" 
>
<text fill="#0000ff" fill-opacity="1" stroke="none" xml:space="preserve" x="12" y="223.375" font-family="Helvetica" font-size="281" font-weight="700" font-style="normal" 
 >DAN</text>
</g>

<g fill="none" stroke="#000000" stroke-opacity="1" stroke-width="1" stroke-linecap="square" stroke-linejoin="bevel" transform="matrix(1,0,0,1,-18,11)"
font-family=".SF NS Text" font-size="13" font-weight="400" font-style="normal" 
>
</g>

<g fill="none" stroke="#000000" stroke-opacity="1" stroke-width="1" stroke-linecap="square" stroke-linejoin="bevel" transform="matrix(1,0,0,1,0,0)"
font-family=".SF NS Text" font-size="13" font-weight="400" font-style="normal" 
>
</g>

<g fill="none" stroke="#000000" stroke-opacity="1" stroke-width="1" stroke-linecap="square" stroke-linejoin="bevel" transform="matrix(1,0,0,1,0,0)"
font-family=".SF NS Text" font-size="13" font-weight="400" font-style="normal" 
>
</g>

<g fill="none" stroke="#000000" stroke-opacity="1" stroke-width="1" stroke-linecap="square" stroke-linejoin="bevel" transform="matrix(1,0,0,1,-4,342)"
font-family=".SF NS Text" font-size="13" font-weight="400" font-style="normal" 
>
</g>

<g fill="none" stroke="#000000" stroke-opacity="1" stroke-width="1" stroke-linecap="square" stroke-linejoin="bevel" transform="matrix(1,0,0,1,-4,342)"
font-family="Helvetica" font-size="210" font-weight="700" font-style="normal" 
>
<text fill="#000000" fill-opacity="1" stroke="none" xml:space="preserve" x="12" y="168.703" font-family="Helvetica" font-size="210" font-weight="700" font-style="normal" 
 >SANS</text>
</g>

<g fill="none" stroke="#000000" stroke-opacity="1" stroke-width="1" stroke-linecap="square" stroke-linejoin="bevel" transform="matrix(1,0,0,1,-4,342)"
font-family=".SF NS Text" font-size="13" font-weight="400" font-style="normal" 
>
</g>

<g fill="none" stroke="#000000" stroke-opacity="1" stroke-width="1" stroke-linecap="square" stroke-linejoin="bevel" transform="matrix(1,0,0,1,0,0)"
font-family=".SF NS Text" font-size="13" font-weight="400" font-style="normal" 
>
</g>

<g fill="none" stroke="#000000" stroke-opacity="1" stroke-width="1" stroke-linecap="square" stroke-linejoin="bevel" transform="matrix(1,0,0,1,0,0)"
font-family=".SF NS Text" font-size="13" font-weight="400" font-style="normal" 
>
</g>
</g>
</svg>
